<svg width="456" height="456" viewBox="0 0 456 456" fill="none" xmlns="http://www.w3.org/2000/svg">
<path d="M177.667 261.547C177.667 261.547 96.5793 234.823 109.8 148.925C109.8 148.925 118.261 176.516 133.069 179.119C147.876 181.722 121.611 205.496 177.667 261.547Z" fill="url(#paint0_linear_6947_37448)"/>
<path d="M308.187 219.138L331.448 220.516V148.194C271.505 113.927 195.457 138.551 195.457 138.551C197.425 113.066 175.058 107.384 175.058 107.384C189.552 115.994 176.848 142.512 176.848 142.512C168.438 95.847 94 101.185 94 101.185C144.997 119.954 132.292 140.445 133.366 189.177C134.44 237.735 181.321 262.531 181.321 262.531L143.565 261.154V335.886C143.565 335.886 174.879 349.318 221.761 353.795V227.92H196.352C190.626 227.92 185.258 223.271 185.258 217.761V185.388C185.258 179.878 190.626 175.229 196.352 175.229H221.761V167.652H250.39V175.229H279.02C284.746 175.229 289.577 179.706 289.577 185.388V217.761C289.577 223.271 284.925 227.92 279.02 227.92H250.39V355H252.001C315.523 354.656 343.079 313.673 344.869 279.923C347.553 236.186 308.187 219.138 308.187 219.138V219.138Z" fill="url(#paint1_linear_6947_37448)"/>
<defs>
<linearGradient id="paint0_linear_6947_37448" x1="154.437" y1="205.286" x2="120.788" y2="204.91" gradientUnits="userSpaceOnUse">
<stop stop-color="#E56600"/>
<stop offset="1" stop-color="#FFA60B"/>
</linearGradient>
<linearGradient id="paint1_linear_6947_37448" x1="309.835" y1="280.584" x2="164.664" y2="197.117" gradientUnits="userSpaceOnUse">
<stop offset="0.047" stop-color="#E56600"/>
<stop offset="1" stop-color="#FFB80B"/>
</linearGradient>
</defs>
</svg>
